<svg xmlns="http://www.w3.org/2000/svg" xmlns:xlink="http://www.w3.org/1999/xlink" width="314.066" height="234.693" viewBox="0 0 314.066 234.693">
  <defs>
    <linearGradient id="linear-gradient" x1="-0.667" y1="0.423" x2="1.667" y2="0.577" gradientUnits="objectBoundingBox">
      <stop offset="0" stop-color="#271635"/>
      <stop offset="1" stop-color="#6c4d77"/>
    </linearGradient>
    <linearGradient id="linear-gradient-2" x1="3.35" y1="0.196" x2="2.338" y2="0.304" xlink:href="#linear-gradient"/>
    <linearGradient id="linear-gradient-3" x1="-0.653" y1="-2.034" x2="0.867" y2="1.307" xlink:href="#linear-gradient"/>
    <linearGradient id="linear-gradient-4" x1="-0.435" y1="-1.314" x2="0.778" y2="1.039" xlink:href="#linear-gradient"/>
    <linearGradient id="linear-gradient-5" x1="-0.435" y1="-1.314" x2="0.778" y2="1.039" xlink:href="#linear-gradient"/>
    <linearGradient id="linear-gradient-6" x1="-0.349" y1="-1.744" x2="0.965" y2="1.73" xlink:href="#linear-gradient"/>
    <linearGradient id="linear-gradient-7" x1="-2.081" y1="-0.109" x2="1.695" y2="0.854" xlink:href="#linear-gradient"/>
    <linearGradient id="linear-gradient-10" x1="3.388" y1="0.196" x2="2.363" y2="0.304" xlink:href="#linear-gradient"/>
    <linearGradient id="linear-gradient-12" x1="-0.435" y1="-1.314" x2="0.778" y2="1.039" xlink:href="#linear-gradient"/>
    <linearGradient id="linear-gradient-13" x1="-0.435" y1="-1.314" x2="0.778" y2="1.039" xlink:href="#linear-gradient"/>
    <linearGradient id="linear-gradient-16" x1="-1.321" y1="-0.022" x2="1.942" y2="1.018" xlink:href="#linear-gradient"/>
    <linearGradient id="linear-gradient-17" x1="-92.137" y1="-34.009" x2="-91.498" y2="-34.451" gradientUnits="objectBoundingBox">
      <stop offset="0.003" stop-color="#c66a17"/>
      <stop offset="0.019" stop-color="#c86d1e"/>
      <stop offset="0.108" stop-color="#d78043"/>
      <stop offset="0.205" stop-color="#e39062"/>
      <stop offset="0.31" stop-color="#ed9e7c"/>
      <stop offset="0.425" stop-color="#f5a890"/>
      <stop offset="0.556" stop-color="#faaf9e"/>
      <stop offset="0.718" stop-color="#feb3a6"/>
      <stop offset="1" stop-color="#ffb5a9"/>
    </linearGradient>
    <linearGradient id="linear-gradient-18" x1="0" y1="0.5" x2="1" y2="0.5" xlink:href="#linear-gradient"/>
    <linearGradient id="linear-gradient-19" x1="-124.872" y1="-2.301" x2="-124.091" y2="-2.719" xlink:href="#linear-gradient-17"/>
    <linearGradient id="linear-gradient-21" x1="-0.104" y1="0.613" x2="1.268" y2="0.321" gradientUnits="objectBoundingBox">
      <stop offset="0" stop-color="#ffb5a9"/>
      <stop offset="0.359" stop-color="#feb3a6"/>
      <stop offset="0.515" stop-color="#fbb09f"/>
      <stop offset="0.632" stop-color="#f6a993"/>
      <stop offset="0.729" stop-color="#efa081"/>
      <stop offset="0.815" stop-color="#e6946a"/>
      <stop offset="0.891" stop-color="#db854d"/>
      <stop offset="0.96" stop-color="#ce742c"/>
      <stop offset="0.997" stop-color="#c66a17"/>
    </linearGradient>
    <linearGradient id="linear-gradient-22" x1="-241.397" y1="-154.568" x2="-240.784" y2="-154.887" xlink:href="#linear-gradient-21"/>
    <linearGradient id="linear-gradient-25" x1="-0.336" y1="0.745" x2="1.101" y2="0.381" gradientUnits="objectBoundingBox">
      <stop offset="0.003" stop-color="#c66a17"/>
      <stop offset="0.14" stop-color="#d37b39"/>
      <stop offset="0.325" stop-color="#e39061"/>
      <stop offset="0.507" stop-color="#efa080"/>
      <stop offset="0.682" stop-color="#f7ab96"/>
      <stop offset="0.85" stop-color="#fdb2a4"/>
      <stop offset="1" stop-color="#ffb5a9"/>
    </linearGradient>
    <linearGradient id="linear-gradient-26" x1="-0.293" y1="-0.169" x2="1.668" y2="1.083" xlink:href="#linear-gradient"/>
    <linearGradient id="linear-gradient-27" x1="-1.043" y1="-0.604" x2="3.206" y2="1.876" xlink:href="#linear-gradient"/>
    <linearGradient id="linear-gradient-28" y1="0.5" x2="1" y2="0.5" gradientUnits="objectBoundingBox">
      <stop offset="0" stop-color="#813abe"/>
      <stop offset="1" stop-color="#e55ec9"/>
    </linearGradient>
    <linearGradient id="linear-gradient-31" x1="0.463" y1="-0.002" x2="0.504" y2="0.483" gradientUnits="objectBoundingBox">
      <stop offset="0" stop-color="#8cc952"/>
      <stop offset="1" stop-color="#4bba37"/>
    </linearGradient>
    <linearGradient id="linear-gradient-32" x1="28.542" y1="-7.04" x2="30.102" y2="-7.04" xlink:href="#linear-gradient-31"/>
    <linearGradient id="linear-gradient-34" x1="113.037" y1="-3.285" x2="113.07" y2="-2.719" xlink:href="#linear-gradient-31"/>
    <linearGradient id="linear-gradient-35" x1="-81.206" y1="148.308" x2="-80.535" y2="148.308" xlink:href="#linear-gradient-31"/>
    <linearGradient id="linear-gradient-36" x1="0.464" y1="-0.002" x2="0.504" y2="0.484" xlink:href="#linear-gradient-31"/>
    <linearGradient id="linear-gradient-37" x1="93.941" y1="-21.535" x2="95.46" y2="-21.535" xlink:href="#linear-gradient-31"/>
    <linearGradient id="linear-gradient-39" x1="163.564" y1="-13.779" x2="163.597" y2="-13.195" xlink:href="#linear-gradient-31"/>
    <linearGradient id="linear-gradient-40" x1="-109.33" y1="195.123" x2="-108.663" y2="195.123" xlink:href="#linear-gradient-31"/>
    <linearGradient id="linear-gradient-41" x1="-1.321" y1="-0.221" x2="1.38" y2="0.93" xlink:href="#linear-gradient"/>
  </defs>
  <g id="MAIN_OBJECTS" data-name="MAIN OBJECTS" transform="translate(-1970.429 -602.709)">
    <g id="Group_30" data-name="Group 30">
      <path id="Path_5" data-name="Path 5" d="M2030.182,837.4a2.213,2.213,0,0,0-1.7-.615c-58.009,1.27-70.263-25.115-46.877-54.078,26.212-32.463,56.38-19.452,56.38-52.485s23.231-85.015,81.469-87.9,40.865-45.25,81.02-38.985,20.543,71.93,34.611,105.422c13.929,33.161,51.03,49.1,49.357,81.564a49.354,49.354,0,0,1-7.769,23.336c-12.07,19.569-47.34,21.767-70.33,21.97L2029.559,837.2" fill="#f2f2f2"/>
      <rect id="Rectangle_3" data-name="Rectangle 3" width="37.325" height="182.857" transform="translate(2169.457 648.146)" opacity="0.33" fill="url(#linear-gradient)"/>
      <rect id="Rectangle_4" data-name="Rectangle 4" width="18.847" height="182.857" transform="translate(2169.457 648.146)" opacity="0.33" fill="url(#linear-gradient-2)"/>
      <rect id="Rectangle_5" data-name="Rectangle 5" width="48.422" height="8.575" rx="4.081" transform="translate(2164.16 760.64)" fill="url(#linear-gradient-3)"/>
      <path id="Path_6" data-name="Path 6" d="M2211.32,701.905v.956a3.81,3.81,0,0,1-3.809,3.81h-40.8a3.81,3.81,0,0,1-3.809-3.81v-.956a3.809,3.809,0,0,1,3.809-3.809h40.8a3.872,3.872,0,0,1,.6.047A3.809,3.809,0,0,1,2211.32,701.905Z" fill="url(#linear-gradient-4)"/>
      <path id="Path_7" data-name="Path 7" d="M2212.092,646.134v.957a3.81,3.81,0,0,1-3.81,3.809h-40.8a3.81,3.81,0,0,1-3.81-3.809v-.957a3.809,3.809,0,0,1,3.81-3.809h40.8a3.748,3.748,0,0,1,.6.048A3.809,3.809,0,0,1,2212.092,646.134Z" fill="url(#linear-gradient-5)"/>
      <rect id="Rectangle_6" data-name="Rectangle 6" width="48.422" height="8.901" rx="4.236" transform="translate(2162.899 822.932)" fill="url(#linear-gradient-6)"/>
      <path id="Rectangle_7" data-name="Rectangle 7" d="M9.363,0h.946a9.363,9.363,0,0,1,9.363,9.363V30.011a0,0,0,0,1,0,0H0a0,0,0,0,1,0,0V9.363A9.363,9.363,0,0,1,9.363,0Z" transform="translate(2178.031 733.15)" fill="url(#linear-gradient-7)"/>
      <path id="Rectangle_8" data-name="Rectangle 8" d="M9.363,0h.946a9.363,9.363,0,0,1,9.363,9.363V30.011a0,0,0,0,1,0,0H0a0,0,0,0,1,0,0V9.363A9.363,9.363,0,0,1,9.363,0Z" transform="translate(2178.711 669.121)" fill="url(#linear-gradient-7)"/>
      <rect id="Rectangle_9" data-name="Rectangle 9" width="25.361" height="124.247" transform="translate(2127.823 706.198)" opacity="0.33" fill="url(#linear-gradient)"/>
      <rect id="Rectangle_10" data-name="Rectangle 10" width="12.806" height="126.097" transform="translate(2127.823 706.198)" opacity="0.33" fill="url(#linear-gradient-10)"/>
      <rect id="Rectangle_11" data-name="Rectangle 11" width="32.901" height="5.826" rx="2.773" transform="translate(2124.224 782.635)" fill="url(#linear-gradient-3)"/>
      <path id="Path_8" data-name="Path 8" d="M2156.268,742.726v.65a2.588,2.588,0,0,1-2.588,2.588h-27.724a2.588,2.588,0,0,1-2.588-2.588v-.65a2.587,2.587,0,0,1,2.588-2.588h27.724a2.627,2.627,0,0,1,.409.032A2.589,2.589,0,0,1,2156.268,742.726Z" fill="url(#linear-gradient-12)"/>
      <path id="Path_9" data-name="Path 9" d="M2156.252,704.831v.65a2.589,2.589,0,0,1-2.589,2.589H2125.94a2.589,2.589,0,0,1-2.589-2.589v-.65a2.589,2.589,0,0,1,2.589-2.588h27.723a2.524,2.524,0,0,1,.41.033A2.587,2.587,0,0,1,2156.252,704.831Z" fill="url(#linear-gradient-13)"/>
      <path id="Rectangle_12" data-name="Rectangle 12" d="M6.362,0H7a6.362,6.362,0,0,1,6.362,6.362v14.03a0,0,0,0,1,0,0H0a0,0,0,0,1,0,0V6.362A6.362,6.362,0,0,1,6.362,0Z" transform="translate(2133.649 763.957)" fill="url(#linear-gradient-7)"/>
      <path id="Rectangle_13" data-name="Rectangle 13" d="M6.362,0H7a6.362,6.362,0,0,1,6.362,6.362v14.03a0,0,0,0,1,0,0H0a0,0,0,0,1,0,0V6.362A6.362,6.362,0,0,1,6.362,0Z" transform="translate(2134.111 720.45)" fill="url(#linear-gradient-7)"/>
      <path id="Rectangle_14" data-name="Rectangle 14" d="M9.363,0h.946a9.363,9.363,0,0,1,9.363,9.363V30.011a0,0,0,0,1,0,0H0a0,0,0,0,1,0,0V9.363A9.363,9.363,0,0,1,9.363,0Z" transform="translate(2178.031 794.434)" fill="url(#linear-gradient-16)"/>
      <g id="Group_23" data-name="Group 23">
        <g id="Group_22" data-name="Group 22">
          <g id="Group_8" data-name="Group 8">
            <path id="Path_10" data-name="Path 10" d="M2070.262,718.219,2068.985,722a.549.549,0,0,0,.124.557l7.531,7.832a.55.55,0,0,0,.924-.228l1.112-3.831a.553.553,0,0,0-.129-.532l-7.365-7.782A.549.549,0,0,0,2070.262,718.219Z" fill="#a0adb5"/>
            <path id="Path_11" data-name="Path 11" d="M2070.616,719.374l-1.08,3.195a.554.554,0,0,0,.125.558l6.535,6.8a.55.55,0,0,0,.925-.228l.938-3.234a.55.55,0,0,0-.128-.532l-6.4-6.757A.549.549,0,0,0,2070.616,719.374Z" fill="#798489"/>
            <path id="Path_12" data-name="Path 12" d="M2076.592,731.863l-8.457-8.731a.678.678,0,0,1-.13-.752l.044-.1a.676.676,0,0,1,1.1-.19l8.458,8.731a.677.677,0,0,1,.129.752l-.044.1A.676.676,0,0,1,2076.592,731.863Z" fill="#212528"/>
            <path id="Path_13" data-name="Path 13" d="M2070.69,721.593l-1.7.4,8.4,8.782,1.379-.345a.286.286,0,0,0,.138-.475l-7.939-8.286A.288.288,0,0,0,2070.69,721.593Z" fill="#41484c"/>
          </g>
          <g id="Group_12" data-name="Group 12">
            <g id="Group_11" data-name="Group 11">
              <g id="Group_9" data-name="Group 9">
                <path id="Path_14" data-name="Path 14" d="M2067.049,829.238l15.519,4.823.694-2.4,3.411-11.781-6.112-2.213-1.417,8.508q-1.521-.217-2.795-.3C2067.589,825.316,2067.049,829.238,2067.049,829.238Z" fill="url(#linear-gradient-17)"/>
                <path id="Path_15" data-name="Path 15" d="M2067.049,829.238l15.519,4.823.694-2.4a23.162,23.162,0,0,1-5.934-1.947,4.158,4.158,0,0,0-.979-3.835C2067.589,825.316,2067.049,829.238,2067.049,829.238Z" fill="url(#linear-gradient-18)"/>
              </g>
              <g id="Group_10" data-name="Group 10">
                <path id="Path_16" data-name="Path 16" d="M2106.159,833.851l13.561-2.424-.415-2.078-2.028-10.2-5.463.719,2.252,6.957q-1.23.429-2.219.867C2105.035,830.689,2106.159,833.851,2106.159,833.851Z" fill="url(#linear-gradient-19)"/>
                <path id="Path_17" data-name="Path 17" d="M2106.159,833.851l13.561-2.424-.415-2.078a19.637,19.637,0,0,1-5.225.849,3.525,3.525,0,0,0-2.233-2.5C2105.035,830.689,2106.159,833.851,2106.159,833.851Z" fill="url(#linear-gradient-18)"/>
              </g>
            </g>
            <path id="Path_18" data-name="Path 18" d="M2116.686,765.408l.277,2.713s1.7,7.668-.056,11.091a.508.508,0,0,1-.956-.282,14.825,14.825,0,0,0-1.6-6.037,9.659,9.659,0,0,0-.826,2.205.5.5,0,0,1-1,0,8.546,8.546,0,0,1,.849-5.664l-.69-4.432Z" fill="url(#linear-gradient-21)"/>
            <path id="Path_19" data-name="Path 19" d="M2075.353,734.374l-1.365-1.763s-4.431-4.617-4.832-7.681c-.058-.443.453-.57.722-.185a13.144,13.144,0,0,0,3.652,3.531,8.42,8.42,0,0,0-.451-1.851c-.174-.459.28-.745.624-.395a7.639,7.639,0,0,1,1.954,4.248l2.378,2.786Z" fill="url(#linear-gradient-22)"/>
          </g>
          <g id="Group_21" data-name="Group 21">
            <g id="Group_13" data-name="Group 13">
              <path id="Path_20" data-name="Path 20" d="M2108.189,768.5l10.628,50.476a2.391,2.391,0,0,1-2.445,2.881l-7.348-.328a2.39,2.39,0,0,1-2.223-1.851l-10.728-46.53a2.392,2.392,0,0,1,1.285-2.688l7.447-3.618A2.391,2.391,0,0,1,2108.189,768.5Z" fill="url(#linear-gradient-18)"/>
              <path id="Path_21" data-name="Path 21" d="M2104.039,776.966a307.893,307.893,0,0,1-12.946,42.383,2.006,2.006,0,0,1-1.963,1.291l-8.766-.391a2,2,0,0,1-1.819-2.612l15.385-48.066a2,2,0,0,1,3.339-.791l6.241,6.368A2,2,0,0,1,2104.039,776.966Z" fill="url(#linear-gradient-18)"/>
            </g>
            <g id="Group_20" data-name="Group 20">
              <g id="Group_14" data-name="Group 14">
                <path id="Path_22" data-name="Path 22" d="M2101.979,711.154l2.538,13.227-6.345,1.237v-8.493Z" fill="url(#linear-gradient-25)"/>
                <path id="Path_23" data-name="Path 23" d="M2100.922,714.034a13.473,13.473,0,0,0,2.3,3.6c1.359,1.375,5.248-7.8,2.661-12.633s-14.155-5.857-17.962,1.2c0,0-1.391,1.879,5.1,2.66,0,0,5.117-.521,5.946,4.6Z" fill="url(#linear-gradient-26)"/>
                <path id="Path_24" data-name="Path 24" d="M2101.654,711.232s-.2,8.5-7.875,7.9c0,0-2.212.033-1.594-3.394h-.944s.44-2.15.537-3.234-.39-3.6.659-4.536l5.418-1.764,1.293,6.023s.366-2.445,1.855-1.89C2101,710.333,2101.6,710.391,2101.654,711.232Z" fill="#ffb5a9"/>
                <path id="Path_25" data-name="Path 25" d="M2093.023,708.86s3.77.012,4.71,1.122l1.33,2.978.4-3.5-.366-3.846-3.21-1.049s-4.087.89-4.124.951-1.049,1.575-1.049,1.575l.632,1.513Z" fill="url(#linear-gradient-27)"/>
              </g>
              <g id="Group_19" data-name="Group 19">
                <g id="Group_15" data-name="Group 15">
                  <path id="Path_26" data-name="Path 26" d="M2095.907,722.975l-2.487,20.246-6.568,6.361a3.43,3.43,0,0,1-1.292.789,3.324,3.324,0,0,1-.867.176c-.086.007-.168.011-.254.011a3.451,3.451,0,0,1-2.678-1.269l-9.524-11.632.387-.461,4.787-5.689,5.935,6.447a1.177,1.177,0,0,0,1.925-.285C2086.876,734.334,2090.968,726.607,2095.907,722.975Z" fill="url(#linear-gradient-28)"/>
                  <path id="Path_27" data-name="Path 27" d="M2095.907,722.975l-2.487,20.246-6.568,6.361a3.43,3.43,0,0,1-1.292.789Z" fill="#6902a5" opacity="0.18"/>
                  <path id="Path_28" data-name="Path 28" d="M2084.7,750.558h-.262a3.451,3.451,0,0,1-2.678-1.269l-9.524-11.632.387-.461,12.069,13.351Z" fill="#6902a5" opacity="0.18"/>
                </g>
                <g id="Group_17" data-name="Group 17">
                  <g id="Group_16" data-name="Group 16">
                    <path id="Path_29" data-name="Path 29" d="M2115.029,787.271l-10.055.449-17.177.765s1.367-16.13,2.164-28.739c.413-6.611.667-12.249.488-14.092-.524-5.361-3.1-21.128,10.23-25.174,0,0,12.073-2.71,8.676,19.536q-.293,1.932-.749,4.119a52.951,52.951,0,0,0-.816,10.117A80.878,80.878,0,0,0,2115.029,787.271Z" fill="url(#linear-gradient-28)"/>
                    <path id="Path_30" data-name="Path 30" d="M2109.355,740.016q-.293,1.932-.749,4.119a52.951,52.951,0,0,0-.816,10.117,126.029,126.029,0,0,0-6.135-17.579Z" fill="#6902a5" opacity="0.18"/>
                  </g>
                  <path id="Path_31" data-name="Path 31" d="M2103.736,719.6l.147,1.244a17.647,17.647,0,0,0-6.608,1.318l.263-.659A18.908,18.908,0,0,1,2103.736,719.6Z" fill="#4d0084"/>
                </g>
                <g id="Group_18" data-name="Group 18">
                  <path id="Path_32" data-name="Path 32" d="M2119.453,766.845h-9.371c-.1-18.059-8.427-29.871-8.427-29.871-5.205-13.093-.574-15.338,2.226-15.615h0a6.581,6.581,0,0,1,1.757.055s6.4,3.881,10.562,20.874A129.935,129.935,0,0,1,2119.453,766.845Z" fill="url(#linear-gradient-28)"/>
                  <path id="Path_33" data-name="Path 33" d="M2116.2,742.288c-5.2-14.276-12.108-20.73-12.319-20.929a6.581,6.581,0,0,1,1.757.055S2112.046,725.295,2116.2,742.288Z" fill="#6902a5" opacity="0.18"/>
                </g>
              </g>
            </g>
          </g>
        </g>
        <path id="Path_34" data-name="Path 34" d="M2104.974,787.72l-17.177.765s1.367-16.13,2.164-28.739C2091.675,767.716,2095.7,779.809,2104.974,787.72Z" fill="#6902a5" opacity="0.18"/>
      </g>
      <g id="Group_26" data-name="Group 26">
        <g id="Group_24" data-name="Group 24">
          <path id="Path_35" data-name="Path 35" d="M2160.693,816.8s-2.915-21.461,7.652-22.611,10.2-3.832,16.4-14.562,13.118-7.281,13.118-7.281-2.915,3.832-2.915,17.245-7.288,11.88-10.567,18.4.364,8.43-9.474,9.963S2160.693,816.8,2160.693,816.8Z" fill="url(#linear-gradient-31)"/>
          <path id="Path_36" data-name="Path 36" d="M2161.041,816.255s-9.509-9.427-4.7-14.389,3.617-6.14,2.655-14.034,3.767-9.062,3.767-9.062-.005,3.112,5.035,9.76.852,8.918,1.675,13.511,3.348,4.028-.952,8.877S2161.041,816.255,2161.041,816.255Z" fill="url(#linear-gradient-32)"/>
        </g>
        <path id="Path_37" data-name="Path 37" d="M2132.051,832.893l52.424.383-7.436-17.628-15.988.766-7.064-16.479-17.1.766,4.462,18.011-9.667,5.748Z" fill="url(#linear-gradient-18)"/>
        <g id="Group_25" data-name="Group 25">
          <path id="Path_38" data-name="Path 38" d="M2144.154,820.246s-9.286,1.334-9.781-3.524-1.655-4.691-6.3-7.541-3.147-6.032-3.147-6.032,1.657,1.341,7.461,1.345,5.138,3.353,7.955,4.863,3.648-.165,4.309,4.357S2144.154,820.246,2144.154,820.246Z" fill="url(#linear-gradient-34)"/>
          <path id="Path_39" data-name="Path 39" d="M2143.919,820.086s-4.081,4.368-6.227,2.158-2.655-1.665-6.071-1.225-3.92-1.734-3.92-1.734,1.346,0,4.225-2.312,3.858-.389,5.846-.765,1.743-1.539,3.84.44S2143.919,820.086,2143.919,820.086Z" fill="url(#linear-gradient-35)"/>
        </g>
      </g>
      <g id="Group_29" data-name="Group 29">
        <g id="Group_27" data-name="Group 27">
          <path id="Path_40" data-name="Path 40" d="M2051.087,822.608s-1.3-9.265,3.405-9.762,4.54-1.654,7.3-6.287,5.837-3.143,5.837-3.143-1.3,1.654-1.3,7.445-3.243,5.129-4.7,7.941.163,3.64-4.215,4.3S2051.087,822.608,2051.087,822.608Z" fill="url(#linear-gradient-36)"/>
          <path id="Path_41" data-name="Path 41" d="M2051.242,822.373s-4.232-4.069-2.093-6.212,1.61-2.651,1.182-6.058,1.676-3.913,1.676-3.913,0,1.344,2.24,4.214.38,3.85.746,5.833,1.49,1.739-.424,3.832S2051.242,822.373,2051.242,822.373Z" fill="url(#linear-gradient-37)"/>
        </g>
        <path id="Path_42" data-name="Path 42" d="M2030.182,833.408l37.709.267-5.349-12.3-11.5.535-5.081-11.5-12.3.535,3.209,12.57-6.953,4.012Z" fill="url(#linear-gradient-18)"/>
        <g id="Group_28" data-name="Group 28">
          <path id="Path_43" data-name="Path 43" d="M2038.888,824.583s-6.68.93-7.035-2.46-1.191-3.273-4.529-5.263-2.263-4.209-2.263-4.209,1.192.936,5.366.939,3.7,2.34,5.723,3.393,2.624-.115,3.1,3.041S2038.888,824.583,2038.888,824.583Z" fill="url(#linear-gradient-39)"/>
          <path id="Path_44" data-name="Path 44" d="M2038.719,824.471s-2.936,3.048-4.479,1.505-1.91-1.161-4.367-.854-2.819-1.21-2.819-1.21.968,0,3.038-1.614,2.776-.271,4.2-.534,1.254-1.073,2.763.307A4.741,4.741,0,0,1,2038.719,824.471Z" fill="url(#linear-gradient-40)"/>
        </g>
      </g>
      <path id="Path_45" data-name="Path 45" d="M2171.465,630.905l16.859-19.112,16.084,19.461c5,6.044-.027,14.456-8.591,14.392l-16.136-.122C2171.05,645.458,2166.216,636.856,2171.465,630.905Z" fill="url(#linear-gradient-41)"/>
      <path id="Path_46" data-name="Path 46" d="M2128.558,694.577l12.1-13.719,11.546,13.97c3.586,4.338-.019,10.377-6.167,10.33l-11.583-.087C2128.26,705.024,2124.79,698.849,2128.558,694.577Z" fill="url(#linear-gradient-41)"/>
      <path id="Path_47" data-name="Path 47" d="M2076.218,649.64a24.53,24.53,0,0,0,46.133,11.883,24.267,24.267,0,0,1-10.8,2.522,24.845,24.845,0,0,1-21.565-36.681A24.819,24.819,0,0,0,2076.218,649.64Z" fill="#ffb727"/>
    </g>
  </g>
</svg>
